<?xml version="1.0" standalone="no"?>
<!DOCTYPE svg PUBLIC "-//W3C//DTD SVG 20010904//EN"
 "http://www.w3.org/TR/2001/REC-SVG-20010904/DTD/svg10.dtd">
<svg version="1.0" xmlns="http://www.w3.org/2000/svg"
 width="1000.000000pt" height="1000.000000pt" viewBox="0 0 1000.000000 1000.000000"
 preserveAspectRatio="xMidYMid meet">
<metadata>
Created by potrace 1.14, written by Peter Selinger 2001-2017
</metadata>
<g transform="translate(0.000000,1000.000000) scale(0.100000,-0.100000)"
fill="#000000" stroke="none">
<path d="M1333 7210 l0 -270 51 0 c28 -1 331 -1 674 -1 l622 0 0 -2209 0
-2210 320 0 c249 0 320 3 321 13 0 6 1 1000 2 2207 l2 2195 610 2 c336 1 637
2 670 3 l60 0 -1 257 c-1 142 -2 264 -3 271 -1 9 -341 12 -1664 12 l-1664 0 0
-270z"/>
<path d="M4880 7474 c0 -5 56 -197 145 -499 13 -44 71 -242 129 -440 59 -198
115 -389 126 -425 25 -83 167 -565 230 -780 49 -166 206 -700 262 -885 16 -55
33 -113 37 -130 5 -16 48 -163 96 -325 48 -162 105 -353 126 -425 21 -71 92
-314 159 -540 67 -225 123 -417 125 -425 2 -8 8 -28 13 -45 l8 -30 399 0 399
0 27 85 c15 47 53 168 84 270 31 102 79 257 106 345 28 88 64 205 80 260 17
55 53 172 81 260 27 88 69 223 93 300 24 77 100 325 170 550 70 226 135 437
145 470 16 57 61 200 125 405 15 47 35 112 45 145 10 33 48 157 85 275 106
340 205 660 225 725 10 33 28 92 40 130 12 39 28 90 35 115 7 25 41 133 74
240 34 107 63 202 65 210 6 24 48 154 53 163 2 4 -152 6 -343 5 l-347 -3 -28
-95 c-15 -52 -66 -230 -114 -395 -48 -165 -115 -399 -150 -520 -35 -121 -92
-321 -128 -445 -36 -124 -100 -344 -142 -490 -42 -146 -106 -366 -142 -490
-35 -124 -84 -295 -109 -380 -24 -85 -48 -168 -53 -185 -5 -16 -34 -115 -65
-220 -30 -104 -89 -309 -131 -455 -90 -308 -96 -329 -124 -435 -12 -44 -29
-100 -38 -124 l-17 -44 -8 29 c-12 42 -57 205 -84 304 -12 47 -46 168 -74 270
-28 102 -53 192 -55 200 -2 8 -29 107 -60 220 -31 113 -112 408 -180 655 -68
248 -138 501 -155 564 -17 62 -33 120 -35 130 -3 9 -32 115 -65 236 -34 121
-68 243 -75 270 -56 206 -83 305 -132 480 -30 110 -57 208 -59 218 -1 10 -8
32 -14 50 -6 18 -47 165 -91 327 -44 162 -82 303 -85 313 -5 16 -30 17 -345
17 -186 0 -339 -3 -339 -6z"/>
</g>
</svg>
